# xmcd CD database file
#
# Track frame offsets:
#	150
#	15148
#	32184
#	45985
#	63405
#	87037
#	103336
#	122619
#	145805
#	161522
#	178873
#	194845
#
# Disc length: 2715 seconds
#
# Revision: 0
# Processed by: cddbd v1.5.2PL0 Copyright (c) Steve Scherf et al.
# Submitted via: CDex 1.51
#
DISCID=9c0a990c
DTITLE=Blues Himmel - DE DEIWEL SOLL SE HOLE
DYEAR=2006
DGENRE=Blues
TTITLE0=Flaschedrehn
TTITLE1=Die Freck
TTITLE2=Rotz unn Wasser
TTITLE3=Wo fangt de Himmel
TTITLE4=De Deiwel soll se hole
TTITLE5=Ruf misch Michel
TTITLE6=Alles klar in Afrika
TTITLE7=So nah und so fern
TTITLE8=So isses
TTITLE9=Alles es selbe
TTITLE10=De Ball iss rund 
TTITLE11=Nikelaus Blues
EXTD=YEAR: 2006
EXTT0=
EXTT1=
EXTT2=
EXTT3=
EXTT4=
EXTT5=
EXTT6=
EXTT7=
EXTT8=
EXTT9=
EXTT10=
EXTT11=
PLAYORDER=
